<?xml version="1.0" encoding="UTF-8"?>
<svg xmlns="http://www.w3.org/2000/svg" xmlns:xlink="http://www.w3.org/1999/xlink"
     width="993.4" height="993.4" viewBox="-9.934 -9.934 19.868 19.868">
<defs>
</defs>
<circle cx="-1.044" cy="-2.0" r="0.2" fill="red" stroke-width="0.1" stroke="black" />
<circle cx="-2.9730000000000003" cy="-6.414" r="0.2" fill="red" stroke-width="0.1" stroke="black" />
<circle cx="-3.0660000000000003" cy="-0.546" r="0.2" fill="red" stroke-width="0.1" stroke="black" />
<circle cx="5.164" cy="-0.547" r="0.2" fill="red" stroke-width="0.1" stroke="black" />
<circle cx="-1.317" cy="-6.934" r="0.2" fill="red" stroke-width="0.1" stroke="black" />
<circle cx="-6.7410000000000005" cy="-6.832000000000001" r="0.2" fill="red" stroke-width="0.1" stroke="black" />
<circle cx="4.891" cy="-0.627" r="0.2" fill="red" stroke-width="0.1" stroke="black" />
<circle cx="0.524" cy="-2.226" r="0.2" fill="red" stroke-width="0.1" stroke="black" />
<circle cx="-6.5" cy="-7.723" r="0.2" fill="red" stroke-width="0.1" stroke="black" />
<circle cx="-0.41700000000000004" cy="0.157" r="0.2" fill="red" stroke-width="0.1" stroke="black" />
<circle cx="2.303" cy="-1.1640000000000001" r="0.2" fill="red" stroke-width="0.1" stroke="black" />
<circle cx="2.548" cy="-0.629" r="0.2" fill="red" stroke-width="0.1" stroke="black" />
<circle cx="-4.261" cy="2.639" r="0.2" fill="red" stroke-width="0.1" stroke="black" />
<circle cx="-7.667000000000001" cy="-9.934" r="0.2" fill="red" stroke-width="0.1" stroke="black" />
<circle cx="-2.0669999999999997" cy="-5.789" r="0.2" fill="red" stroke-width="0.1" stroke="black" />
<circle cx="-5.204" cy="-0.657" r="0.2" fill="red" stroke-width="0.1" stroke="black" />
<circle cx="-4.138" cy="-5.082" r="0.2" fill="red" stroke-width="0.1" stroke="black" />
<circle cx="-9.193999999999999" cy="-2.759" r="0.2" fill="red" stroke-width="0.1" stroke="black" />
<circle cx="-6.5120000000000005" cy="-3.0210000000000004" r="0.2" fill="red" stroke-width="0.1" stroke="black" />
<circle cx="1.86" cy="-9.672" r="0.2" fill="red" stroke-width="0.1" stroke="black" />
<circle cx="-4.093999999999999" cy="-8.321" r="0.2" fill="red" stroke-width="0.1" stroke="black" />
<circle cx="-3.7760000000000002" cy="3.333" r="0.2" fill="red" stroke-width="0.1" stroke="black" />
<circle cx="2.377" cy="-2.908" r="0.2" fill="red" stroke-width="0.1" stroke="black" />
<circle cx="-4.303" cy="-2.045" r="0.2" fill="red" stroke-width="0.1" stroke="black" />
<circle cx="-3.53" cy="2.49" r="0.2" fill="red" stroke-width="0.1" stroke="black" />
<circle cx="-5.476" cy="-1.4369999999999998" r="0.2" fill="red" stroke-width="0.1" stroke="black" />
<circle cx="-4.933" cy="-3.3369999999999997" r="0.2" fill="red" stroke-width="0.1" stroke="black" />
<circle cx="5.74" cy="-2.3819999999999997" r="0.2" fill="red" stroke-width="0.1" stroke="black" />
<circle cx="-2.275" cy="-5.541" r="0.2" fill="red" stroke-width="0.1" stroke="black" />
<circle cx="-5.662000000000001" cy="-7.334" r="0.2" fill="red" stroke-width="0.1" stroke="black" />
<circle cx="-3.8560000000000003" cy="0.37" r="0.2" fill="red" stroke-width="0.1" stroke="black" />
<circle cx="-1.6780000000000002" cy="-1.954" r="0.2" fill="red" stroke-width="0.1" stroke="black" />
<circle cx="-1.156" cy="-1.161" r="0.2" fill="red" stroke-width="0.1" stroke="black" />
<circle cx="-4.655" cy="-9.797" r="0.2" fill="red" stroke-width="0.1" stroke="black" />
<circle cx="1.6230000000000002" cy="-0.932" r="0.2" fill="red" stroke-width="0.1" stroke="black" />
<circle cx="0.129" cy="-0.735" r="0.2" fill="red" stroke-width="0.1" stroke="black" />
<circle cx="-2.64" cy="-2.9530000000000003" r="0.2" fill="red" stroke-width="0.1" stroke="black" />
<circle cx="0.435" cy="-1.469" r="0.2" fill="red" stroke-width="0.1" stroke="black" />
<circle cx="-5.066" cy="2.313" r="0.2" fill="red" stroke-width="0.1" stroke="black" />
<circle cx="-2.283" cy="0.981" r="0.2" fill="red" stroke-width="0.1" stroke="black" />
<circle cx="-7.11" cy="1.8619999999999999" r="0.2" fill="red" stroke-width="0.1" stroke="black" />
<circle cx="-0.785" cy="-3.207" r="0.2" fill="red" stroke-width="0.1" stroke="black" />
<circle cx="1.188" cy="2.4930000000000003" r="0.2" fill="red" stroke-width="0.1" stroke="black" />
<circle cx="-1.893" cy="2.373" r="0.2" fill="red" stroke-width="0.1" stroke="black" />
<circle cx="-1.192" cy="-1.175" r="0.2" fill="red" stroke-width="0.1" stroke="black" />
<circle cx="2.984" cy="-1.163" r="0.2" fill="red" stroke-width="0.1" stroke="black" />
<circle cx="1.227" cy="5.581" r="0.2" fill="red" stroke-width="0.1" stroke="black" />
<circle cx="-3.793" cy="2.161" r="0.2" fill="red" stroke-width="0.1" stroke="black" />
<circle cx="4.288" cy="0.297" r="0.2" fill="red" stroke-width="0.1" stroke="black" />
<path d="M-1.044,-2.0 L4.288,0.297" stroke="black" stroke-width="0.02" fill="none" />
<path d="M-2.9730000000000003,-6.414 L-3.793,2.161" stroke="black" stroke-width="0.02" fill="none" />
<path d="M-3.0660000000000003,-0.546 L1.227,5.581" stroke="black" stroke-width="0.02" fill="none" />
<path d="M5.164,-0.547 L2.984,-1.163" stroke="black" stroke-width="0.02" fill="none" />
<path d="M-1.317,-6.934 L-1.192,-1.175" stroke="black" stroke-width="0.02" fill="none" />
<path d="M-6.7410000000000005,-6.832000000000001 L-1.893,2.373" stroke="black" stroke-width="0.02" fill="none" />
<path d="M4.891,-0.627 L1.188,2.4930000000000003" stroke="black" stroke-width="0.02" fill="none" />
<path d="M0.524,-2.226 L-0.785,-3.207" stroke="black" stroke-width="0.02" fill="none" />
<path d="M-6.5,-7.723 L-7.11,1.8619999999999999" stroke="black" stroke-width="0.02" fill="none" />
<path d="M-0.41700000000000004,0.157 L-2.283,0.981" stroke="black" stroke-width="0.02" fill="none" />
<path d="M2.303,-1.1640000000000001 L-5.066,2.313" stroke="black" stroke-width="0.02" fill="none" />
<path d="M2.548,-0.629 L0.435,-1.469" stroke="black" stroke-width="0.02" fill="none" />
<path d="M-4.261,2.639 L-2.64,-2.9530000000000003" stroke="black" stroke-width="0.02" fill="none" />
<path d="M-7.667000000000001,-9.934 L0.129,-0.735" stroke="black" stroke-width="0.02" fill="none" />
<path d="M-2.0669999999999997,-5.789 L1.6230000000000002,-0.932" stroke="black" stroke-width="0.02" fill="none" />
<path d="M-5.204,-0.657 L-4.655,-9.797" stroke="black" stroke-width="0.02" fill="none" />
<path d="M-4.138,-5.082 L-1.156,-1.161" stroke="black" stroke-width="0.02" fill="none" />
<path d="M-9.193999999999999,-2.759 L-1.6780000000000002,-1.954" stroke="black" stroke-width="0.02" fill="none" />
<path d="M-6.5120000000000005,-3.0210000000000004 L-3.8560000000000003,0.37" stroke="black" stroke-width="0.02" fill="none" />
<path d="M1.86,-9.672 L-5.662000000000001,-7.334" stroke="black" stroke-width="0.02" fill="none" />
<path d="M-4.093999999999999,-8.321 L-2.275,-5.541" stroke="black" stroke-width="0.02" fill="none" />
<path d="M-3.7760000000000002,3.333 L5.74,-2.3819999999999997" stroke="black" stroke-width="0.02" fill="none" />
<path d="M2.377,-2.908 L-4.933,-3.3369999999999997" stroke="black" stroke-width="0.02" fill="none" />
<path d="M-4.303,-2.045 L-5.476,-1.4369999999999998" stroke="black" stroke-width="0.02" fill="none" />
<circle cx="-1.044" cy="-2.0" r="0.3" fill="deeppink" stroke-width="0.2" stroke="black" />
<path d="M-1.044,-2.0 L2.303,-1.1640000000000001" stroke="blueviolet" stroke-width="0.1" fill="none" />
<path d="M2.303,-1.1640000000000001 L2.548,-0.629" stroke="blueviolet" stroke-width="0.1" fill="none" />
<path d="M2.548,-0.629 L0.129,-0.735" stroke="blueviolet" stroke-width="0.1" fill="none" />
<path d="M0.129,-0.735 L1.6230000000000002,-0.932" stroke="blueviolet" stroke-width="0.1" fill="none" />
<path d="M1.6230000000000002,-0.932 L-1.044,-2.0" stroke="blueviolet" stroke-width="0.1" fill="none" />
<path d="M-1.044,-2.0 L-2.0669999999999997,-5.789" stroke="seagreen" stroke-width="0.1" fill="none" />
<path d="M-2.0669999999999997,-5.789 L2.377,-2.908" stroke="seagreen" stroke-width="0.1" fill="none" />
<path d="M2.377,-2.908 L5.164,-0.547" stroke="seagreen" stroke-width="0.1" fill="none" />
<path d="M5.164,-0.547 L5.74,-2.3819999999999997" stroke="seagreen" stroke-width="0.1" fill="none" />
<path d="M5.74,-2.3819999999999997 L1.227,5.581" stroke="seagreen" stroke-width="0.1" fill="none" />
<path d="M1.227,5.581 L-5.066,2.313" stroke="seagreen" stroke-width="0.1" fill="none" />
<path d="M-5.066,2.313 L-4.261,2.639" stroke="seagreen" stroke-width="0.1" fill="none" />
<path d="M-4.261,2.639 L-3.53,2.49" stroke="seagreen" stroke-width="0.1" fill="none" />
<path d="M-3.53,2.49 L4.288,0.297" stroke="seagreen" stroke-width="0.1" fill="none" />
<path d="M4.288,0.297 L4.891,-0.627" stroke="seagreen" stroke-width="0.1" fill="none" />
<path d="M4.891,-0.627 L-2.64,-2.9530000000000003" stroke="seagreen" stroke-width="0.1" fill="none" />
<path d="M-2.64,-2.9530000000000003 L-5.204,-0.657" stroke="seagreen" stroke-width="0.1" fill="none" />
<path d="M-5.204,-0.657 L-6.5120000000000005,-3.0210000000000004" stroke="seagreen" stroke-width="0.1" fill="none" />
<path d="M-6.5120000000000005,-3.0210000000000004 L-3.8560000000000003,0.37" stroke="seagreen" stroke-width="0.1" fill="none" />
<path d="M-3.8560000000000003,0.37 L-3.7760000000000002,3.333" stroke="seagreen" stroke-width="0.1" fill="none" />
<path d="M-3.7760000000000002,3.333 L-2.283,0.981" stroke="seagreen" stroke-width="0.1" fill="none" />
<path d="M-2.283,0.981 L1.188,2.4930000000000003" stroke="seagreen" stroke-width="0.1" fill="none" />
<path d="M1.188,2.4930000000000003 L2.984,-1.163" stroke="seagreen" stroke-width="0.1" fill="none" />
<path d="M2.984,-1.163 L-1.044,-2.0" stroke="seagreen" stroke-width="0.1" fill="none" />
<path d="M-1.044,-2.0 L-0.41700000000000004,0.157" stroke="orangered" stroke-width="0.1" fill="none" />
<path d="M-0.41700000000000004,0.157 L-9.193999999999999,-2.759" stroke="orangered" stroke-width="0.1" fill="none" />
<path d="M-9.193999999999999,-2.759 L-4.655,-9.797" stroke="orangered" stroke-width="0.1" fill="none" />
<path d="M-4.655,-9.797 L-6.5,-7.723" stroke="orangered" stroke-width="0.1" fill="none" />
<path d="M-6.5,-7.723 L-4.093999999999999,-8.321" stroke="orangered" stroke-width="0.1" fill="none" />
<path d="M-4.093999999999999,-8.321 L-2.9730000000000003,-6.414" stroke="orangered" stroke-width="0.1" fill="none" />
<path d="M-2.9730000000000003,-6.414 L-0.785,-3.207" stroke="orangered" stroke-width="0.1" fill="none" />
<path d="M-0.785,-3.207 L0.524,-2.226" stroke="orangered" stroke-width="0.1" fill="none" />
<path d="M0.524,-2.226 L-1.6780000000000002,-1.954" stroke="orangered" stroke-width="0.1" fill="none" />
<path d="M-1.6780000000000002,-1.954 L-1.192,-1.175" stroke="orangered" stroke-width="0.1" fill="none" />
<path d="M-1.192,-1.175 L-1.156,-1.161" stroke="orangered" stroke-width="0.1" fill="none" />
<path d="M-1.156,-1.161 L-3.0660000000000003,-0.546" stroke="orangered" stroke-width="0.1" fill="none" />
<path d="M-3.0660000000000003,-0.546 L-5.476,-1.4369999999999998" stroke="orangered" stroke-width="0.1" fill="none" />
<path d="M-5.476,-1.4369999999999998 L-6.7410000000000005,-6.832000000000001" stroke="orangered" stroke-width="0.1" fill="none" />
<path d="M-6.7410000000000005,-6.832000000000001 L-7.667000000000001,-9.934" stroke="orangered" stroke-width="0.1" fill="none" />
<path d="M-7.667000000000001,-9.934 L-5.662000000000001,-7.334" stroke="orangered" stroke-width="0.1" fill="none" />
<path d="M-5.662000000000001,-7.334 L-4.933,-3.3369999999999997" stroke="orangered" stroke-width="0.1" fill="none" />
<path d="M-4.933,-3.3369999999999997 L-4.138,-5.082" stroke="orangered" stroke-width="0.1" fill="none" />
<path d="M-4.138,-5.082 L-1.317,-6.934" stroke="orangered" stroke-width="0.1" fill="none" />
<path d="M-1.317,-6.934 L-2.275,-5.541" stroke="orangered" stroke-width="0.1" fill="none" />
<path d="M-2.275,-5.541 L0.435,-1.469" stroke="orangered" stroke-width="0.1" fill="none" />
<path d="M0.435,-1.469 L1.86,-9.672" stroke="orangered" stroke-width="0.1" fill="none" />
<path d="M1.86,-9.672 L-4.303,-2.045" stroke="orangered" stroke-width="0.1" fill="none" />
<path d="M-4.303,-2.045 L-7.11,1.8619999999999999" stroke="orangered" stroke-width="0.1" fill="none" />
<path d="M-7.11,1.8619999999999999 L-3.793,2.161" stroke="orangered" stroke-width="0.1" fill="none" />
<path d="M-3.793,2.161 L-1.893,2.373" stroke="orangered" stroke-width="0.1" fill="none" />
<path d="M-1.893,2.373 L-1.044,-2.0" stroke="orangered" stroke-width="0.1" fill="none" />
</svg>